<?xml version="1.0" standalone="no"?>
<!DOCTYPE svg PUBLIC "-//W3C//DTD SVG 20010904//EN"
 "http://www.w3.org/TR/2001/REC-SVG-20010904/DTD/svg10.dtd">
<svg version="1.0" xmlns="http://www.w3.org/2000/svg"
 width="150.000000pt" height="144.000000pt" viewBox="0 0 150.000000 144.000000"
 preserveAspectRatio="xMidYMid meet">
<metadata>
Created by potrace 1.16, written by Peter Selinger 2001-2019
</metadata>
<g transform="translate(0.000000,144.000000) scale(0.100000,-0.100000)"
fill="#000000" stroke="none">
<path d="M820 1367 c-31 -16 -39 -61 -14 -88 9 -10 23 -19 31 -19 15 0 18 26
3 35 -6 4 -7 11 -4 17 12 19 34 -23 34 -64 0 -44 -3 -45 -32 -18 -32 30 -107
28 -137 -4 -29 -31 -32 -94 -5 -113 39 -29 78 -6 72 44 -2 20 -8 28 -22 26
-12 -1 -15 2 -8 9 10 10 47 -6 85 -36 34 -26 50 -126 21 -126 -9 0 -49 -16
-89 -35 -129 -62 -199 -170 -215 -331 -5 -55 -17 -112 -31 -143 -37 -88 -126
-128 -177 -81 -28 26 -28 32 5 81 26 39 26 40 13 111 -12 64 -12 74 3 100 22
38 21 48 -1 48 -55 0 -140 -104 -129 -160 l6 -26 -57 19 c-57 19 -102 17 -129
-4 -20 -18 -15 -38 11 -45 29 -7 51 -30 61 -64 10 -32 33 -49 66 -50 23 0 28
-6 37 -43 14 -52 57 -120 108 -170 93 -90 268 -137 507 -137 227 0 334 37 449
157 92 94 131 191 132 329 1 79 -1 85 -48 178 -90 175 -218 261 -398 267 -65
3 -65 4 -42 72 18 53 64 94 92 81 16 -7 16 -7 -1 -11 -27 -7 -17 -45 16 -61
38 -18 57 -2 57 50 0 31 -7 46 -31 70 -27 27 -34 30 -74 25 l-43 -6 -7 37
c-12 68 -64 104 -115 79z m320 -405 c41 -20 91 -53 111 -73 91 -91 173 -288
136 -326 -4 -4 -10 3 -14 15 -3 12 -9 22 -14 22 -16 0 -9 -23 13 -47 22 -24
22 -24 5 -90 -22 -83 -32 -96 -71 -90 -42 6 -272 -28 -316 -47 -19 -8 -30 -15
-23 -16 6 0 20 -3 30 -6 15 -5 16 -4 3 6 -12 10 -11 11 8 7 13 -3 37 -1 55 4
36 11 216 39 247 39 21 0 21 -1 3 -31 -26 -45 -121 -129 -170 -151 -83 -37
-192 -58 -298 -58 -56 0 -105 3 -108 6 -11 11 12 42 48 64 20 12 34 25 31 28
-4 3 2 14 11 25 18 20 17 20 -3 6 -41 -28 -81 -66 -99 -92 -12 -19 -26 -27
-46 -27 -40 0 -195 37 -243 59 -95 42 -196 170 -196 247 0 31 -2 33 -42 36
-40 3 -45 6 -62 45 -11 23 -30 47 -43 54 -29 16 -29 29 0 30 40 2 62 -2 103
-22 22 -10 43 -19 47 -19 4 0 7 25 7 55 0 51 4 60 38 96 l37 40 2 -108 c3
-107 3 -107 -27 -138 l-30 -31 37 -38 c36 -36 41 -38 91 -34 92 8 147 87 161
236 18 184 84 285 220 340 49 20 56 21 71 7 9 -8 29 -15 43 -15 21 0 27 5 27
21 0 21 3 21 73 15 54 -5 90 -16 147 -44z"/>
</g>
</svg>
